<svg xmlns="http://www.w3.org/2000/svg" version="1.1" xmlns:xlink="http://www.w3.org/1999/xlink" xmlns:svgjs="http://svgjs.dev/svgjs" width="1500" height="352" viewBox="0 0 1500 352"><g transform="matrix(1,0,0,1,-0.9090909090909918,-1.584130789534754)"><svg viewBox="0 0 396 93" data-background-color="#ede1d1" preserveAspectRatio="xMidYMid meet" height="352" width="1500" xmlns="http://www.w3.org/2000/svg" xmlns:xlink="http://www.w3.org/1999/xlink"><g id="tight-bounds" transform="matrix(1,0,0,1,0.2400000000000091,0.4185345551895807)"><svg viewBox="0 0 395.52 92.16293088962085" height="92.16293088962085" width="395.52"><g><svg viewBox="0 0 680.999187517511 158.68446868695472" height="92.16293088962085" width="395.52"><g><rect width="6.582817007426224" height="158.68446868695472" x="261.6638652550424" y="0" fill="#6a704c" opacity="1" stroke-width="0" stroke="transparent" fill-opacity="1" class="rect-yte-0" data-fill-palette-color="primary" rx="1%" id="yte-0" data-palette-color="#6a704c"></rect></g><g transform="matrix(1,0,0,1,285.47918751751115,0.39473748429590216)"><svg viewBox="0 0 395.5199999999999 157.8949937183629" height="157.8949937183629" width="395.5199999999999"><g id="textblocktransform"><svg viewBox="0 0 395.5199999999999 157.8949937183629" height="157.8949937183629" width="395.5199999999999" id="textblock"><g><svg viewBox="0 0 395.5199999999999 72.99558301158301" height="72.99558301158301" width="395.5199999999999"><g transform="matrix(1,0,0,1,0,0)"><svg width="395.5199999999999" viewBox="3.98 -39.5 282.16 52.51" height="72.99558301158301" data-palette-color="#6a704c"><g class="wordmark-text-0" data-fill-palette-color="primary" id="text-0"><path d="M13.67-15.33L13.67 0 3.98 0 3.98-35.16 13.67-35.16 13.67-19.8 26.51-19.8 26.51-35.16 36.21-35.16 36.21 0 26.51 0 26.51-15.33 13.67-15.33ZM72.02-28.2L72.02 0 63.77 0 63.77-3.37Q62.3-1.37 60.24-0.4 58.18 0.56 55.71 0.56L55.71 0.56Q52.49 0.56 49.95-0.59 47.41-1.73 45.65-3.72 43.89-5.71 42.97-8.4 42.04-11.08 42.04-14.16L42.04-14.16Q42.04-17.24 42.97-19.92 43.89-22.61 45.65-24.6 47.41-26.59 49.95-27.73 52.49-28.88 55.71-28.88L55.71-28.88Q57.35-28.88 58.82-28.39 60.3-27.91 61.53-27.01 62.77-26.12 63.71-24.87 64.65-23.61 65.18-22.07L65.18-22.07 68.85-28.2 72.02-28.2ZM63.72-14.16L63.72-14.16Q63.72-15.26 63.61-16.48 63.5-17.7 63.23-18.9 62.96-20.09 62.49-21.18 62.01-22.27 61.26-23.11 60.52-23.95 59.47-24.44 58.42-24.93 57.03-24.93L57.03-24.93Q55.64-24.93 54.61-24.43 53.59-23.93 52.85-23.08 52.12-22.24 51.65-21.14 51.17-20.04 50.9-18.85 50.63-17.65 50.52-16.44 50.41-15.23 50.41-14.16L50.41-14.16Q50.41-13.09 50.52-11.87 50.63-10.64 50.9-9.45 51.17-8.25 51.65-7.15 52.12-6.05 52.85-5.21 53.59-4.37 54.61-3.87 55.64-3.37 57.03-3.37L57.03-3.37Q58.3-3.37 59.29-3.89 60.28-4.42 61.02-5.3 61.77-6.18 62.28-7.3 62.79-8.42 63.11-9.62 63.43-10.82 63.57-12 63.72-13.18 63.72-14.16ZM87.62-35.01L87.62-35.01Q87.62-34.08 87.26-33.25 86.91-32.42 86.3-31.81 85.69-31.2 84.87-30.85 84.05-30.49 83.12-30.49L83.12-30.49Q82.2-30.49 81.37-30.85 80.54-31.2 79.93-31.81 79.32-32.42 78.96-33.25 78.61-34.08 78.61-35.01L78.61-35.01Q78.61-35.94 78.96-36.76 79.32-37.57 79.93-38.18 80.54-38.79 81.37-39.15 82.2-39.5 83.12-39.5L83.12-39.5Q84.05-39.5 84.87-39.15 85.69-38.79 86.3-38.18 86.91-37.57 87.26-36.76 87.62-35.94 87.62-35.01ZM87.25-28.2L87.25-8.15Q87.25-5.25 86.52-2.26 85.79 0.73 84.46 3.53 83.12 6.32 81.28 8.78 79.44 11.23 77.22 13.01L77.22 13.01 73.99 11.06Q75.24 9.35 76.17 7.19 77.09 5.03 77.72 2.71 78.34 0.39 78.66-1.97 78.97-4.32 78.97-6.45L78.97-6.45 78.97-28.2 87.25-28.2ZM102.75-35.01L102.75-35.01Q102.75-34.08 102.4-33.25 102.04-32.42 101.43-31.81 100.82-31.2 100-30.85 99.19-30.49 98.26-30.49L98.26-30.49Q97.33-30.49 96.5-30.85 95.67-31.2 95.06-31.81 94.45-32.42 94.1-33.25 93.74-34.08 93.74-35.01L93.74-35.01Q93.74-35.94 94.1-36.76 94.45-37.57 95.06-38.18 95.67-38.79 96.5-39.15 97.33-39.5 98.26-39.5L98.26-39.5Q99.19-39.5 100-39.15 100.82-38.79 101.43-38.18 102.04-37.57 102.4-36.76 102.75-35.94 102.75-35.01ZM102.39-28.2L102.39-8.15Q102.39-5.25 101.65-2.26 100.92 0.73 99.59 3.53 98.26 6.32 96.42 8.78 94.57 11.23 92.35 13.01L92.35 13.01 89.13 11.06Q90.37 9.35 91.3 7.19 92.23 5.03 92.85 2.71 93.47 0.39 93.79-1.97 94.11-4.32 94.11-6.45L94.11-6.45 94.11-28.2 102.39-28.2ZM117.84-35.01L117.84-35.01Q117.84-34.08 117.48-33.25 117.13-32.42 116.52-31.81 115.91-31.2 115.08-30.85 114.25-30.49 113.32-30.49L113.32-30.49Q112.39-30.49 111.57-30.85 110.76-31.2 110.15-31.81 109.54-32.42 109.18-33.25 108.83-34.08 108.83-35.01L108.83-35.01Q108.83-35.94 109.18-36.76 109.54-37.57 110.15-38.18 110.76-38.79 111.57-39.15 112.39-39.5 113.32-39.5L113.32-39.5Q114.25-39.5 115.08-39.15 115.91-38.79 116.52-38.18 117.13-37.57 117.48-36.76 117.84-35.94 117.84-35.01ZM117.47-28.17L117.47 0 109.19 0 109.19-28.17 117.47-28.17Z" fill="#6a704c" data-fill-palette-color="primary"></path><path d="M145.67-13.13L145.67 0 135.98 0 135.98-35.16 153.26-35.16Q155.7-35.16 157.97-34.58 160.24-34.01 161.99-32.78 163.74-31.54 164.77-29.59 165.81-27.64 165.81-24.85L165.81-24.85Q165.81-22.68 164.9-20.76 163.98-18.85 162.45-17.35 160.93-15.84 158.95-14.86 156.97-13.87 154.85-13.55L154.85-13.55Q155.8-11.94 156.84-10.5 157.88-9.06 158.94-7.8 160-6.54 161.05-5.48 162.1-4.42 163.05-3.54L163.05-3.54Q165.3-1.49 167.5 0L167.5 0 155.41 0Q153.95-1.39 152.63-3.34L152.63-3.34Q151.5-5 150.37-7.46 149.23-9.91 148.62-13.13L148.62-13.13 145.67-13.13ZM155.97-24.85L155.97-24.85Q155.97-28.39 154.25-30.05 152.53-31.71 149.09-31.71L149.09-31.71 145.67-31.71 145.67-16.46 149.09-16.46Q150.92-16.46 152.22-17.15 153.53-17.85 154.36-19.01 155.19-20.17 155.58-21.68 155.97-23.19 155.97-24.85ZM180.19-35.01L180.19-35.01Q180.19-34.08 179.83-33.25 179.48-32.42 178.87-31.81 178.26-31.2 177.43-30.85 176.6-30.49 175.67-30.49L175.67-30.49Q174.74-30.49 173.93-30.85 173.11-31.2 172.5-31.81 171.89-32.42 171.53-33.25 171.18-34.08 171.18-35.01L171.18-35.01Q171.18-35.94 171.53-36.76 171.89-37.57 172.5-38.18 173.11-38.79 173.93-39.15 174.74-39.5 175.67-39.5L175.67-39.5Q176.6-39.5 177.43-39.15 178.26-38.79 178.87-38.18 179.48-37.57 179.83-36.76 180.19-35.94 180.19-35.01ZM179.82-28.17L179.82 0 171.55 0 171.55-28.17 179.82-28.17ZM215.12-28.2L215.12 0 206.87 0 206.87-3.37Q205.41-1.37 203.34-0.4 201.28 0.56 198.81 0.56L198.81 0.56Q195.59 0.56 193.05-0.59 190.51-1.73 188.76-3.72 187-5.71 186.07-8.4 185.14-11.08 185.14-14.16L185.14-14.16Q185.14-17.24 186.07-19.92 187-22.61 188.76-24.6 190.51-26.59 193.05-27.73 195.59-28.88 198.81-28.88L198.81-28.88Q200.45-28.88 201.93-28.39 203.4-27.91 204.64-27.01 205.87-26.12 206.81-24.87 207.75-23.61 208.29-22.07L208.29-22.07 211.95-28.2 215.12-28.2ZM206.82-14.16L206.82-14.16Q206.82-15.26 206.71-16.48 206.6-17.7 206.33-18.9 206.06-20.09 205.59-21.18 205.11-22.27 204.37-23.11 203.62-23.95 202.57-24.44 201.52-24.93 200.13-24.93L200.13-24.93Q198.74-24.93 197.72-24.43 196.69-23.93 195.96-23.08 195.23-22.24 194.75-21.14 194.27-20.04 194-18.85 193.74-17.65 193.63-16.44 193.52-15.23 193.52-14.16L193.52-14.16Q193.52-13.09 193.63-11.87 193.74-10.64 194-9.45 194.27-8.25 194.75-7.15 195.23-6.05 195.96-5.21 196.69-4.37 197.72-3.87 198.74-3.37 200.13-3.37L200.13-3.37Q201.4-3.37 202.39-3.89 203.38-4.42 204.12-5.3 204.87-6.18 205.38-7.3 205.89-8.42 206.21-9.62 206.53-10.82 206.68-12 206.82-13.18 206.82-14.16ZM250.42-38.57L250.42 0 247.25 0 243.59-6.13Q243.05-4.59 242.11-3.34 241.17-2.1 239.94-1.21 238.7-0.32 237.23 0.17 235.75 0.66 234.11 0.66L234.11 0.66Q230.89 0.66 228.35-0.49 225.81-1.64 224.06-3.63 222.3-5.62 221.37-8.3 220.44-10.99 220.44-14.06L220.44-14.06Q220.44-17.14 221.37-19.82 222.3-22.51 224.06-24.49 225.81-26.46 228.35-27.61 230.89-28.76 234.11-28.76L234.11-28.76Q236.58-28.76 238.64-27.81 240.71-26.86 242.17-24.83L242.17-24.83 242.17-38.57 250.42-38.57ZM242.12-14.06L242.12-14.06Q242.12-15.04 241.98-16.21 241.83-17.38 241.51-18.58 241.19-19.78 240.68-20.9 240.17-22.02 239.42-22.9 238.68-23.78 237.69-24.3 236.7-24.83 235.43-24.83L235.43-24.83Q234.04-24.83 233.02-24.33 231.99-23.83 231.26-22.99 230.53-22.14 230.05-21.04 229.57-19.95 229.3-18.75 229.04-17.55 228.93-16.35 228.82-15.14 228.82-14.06L228.82-14.06Q228.82-12.99 228.93-11.78 229.04-10.57 229.3-9.38 229.57-8.18 230.05-7.07 230.53-5.96 231.26-5.11 231.99-4.27 233.02-3.77 234.04-3.27 235.43-3.27L235.43-3.27Q236.82-3.27 237.87-3.76 238.92-4.25 239.67-5.09 240.41-5.93 240.89-7.02 241.37-8.11 241.63-9.31 241.9-10.52 242.01-11.74 242.12-12.96 242.12-14.06ZM286.14-16.16L286.14-16.16Q286.14-13.31 285.44-10.21 284.75-7.1 283.5-4.13 282.26-1.15 280.52 1.48 278.79 4.1 276.71 6.01L276.71 6.01 273.61 4.32Q274.27 3.1 274.86 1.59 275.44 0.07 275.92-1.62 276.4-3.32 276.78-5.13 277.15-6.93 277.41-8.7 277.67-10.47 277.8-12.15 277.93-13.82 277.93-15.26L277.93-15.26Q277.93-16.21 277.86-17.3 277.79-18.38 277.56-19.47 277.32-20.56 276.93-21.56 276.54-22.56 275.9-23.32 275.25-24.07 274.33-24.54 273.42-25 272.17-25L272.17-25Q270.95-25 270-24.45 269.05-23.9 268.32-23.01 267.58-22.12 267.06-20.97 266.53-19.82 266.2-18.62 265.87-17.41 265.73-16.24 265.58-15.06 265.58-14.14L265.58-14.14 265.58 0 257.31 0 257.31-38.57 265.56-38.57 265.56-24.05Q267.14-26.37 269.45-27.62 271.76-28.88 274.57-28.88L274.57-28.88Q277.5-28.88 279.67-27.93 281.84-26.98 283.28-25.28 284.72-23.58 285.43-21.25 286.14-18.92 286.14-16.16Z" fill="#412e27" data-fill-palette-color="accent"></path></g></svg></g></svg></g><g transform="matrix(1,0,0,1,0,90.22808826662548)"><svg viewBox="0 0 129.67865165822883 67.66690545173745" height="67.66690545173745" width="129.67865165822883"><g transform="matrix(1,0,0,1,0,0)"><svg width="129.67865165822883" viewBox="1.7 -34 66.49 34.7" height="67.66690545173745" data-palette-color="#6a704c"><path d="M8.15 0.65L8.15 0.65Q5.15 0.65 3.43-1.35 1.7-3.35 1.7-6.8L1.7-6.8Q1.7-9.35 2.53-11.8 3.35-14.25 4.85-16.2 6.35-18.15 8.35-19.3 10.35-20.45 12.7-20.45L12.7-20.45Q14.2-20.45 15.38-20 16.55-19.55 17.45-18.85L17.45-18.85Q17.4-22.25 17.1-24.95 16.8-27.65 15.65-29.95L15.65-29.95Q15.45-30.35 15.33-30.68 15.2-31 15.2-31.3L15.2-31.3Q15.2-32 15.78-32.6 16.35-33.2 17.2-33.6 18.05-34 18.8-34L18.8-34Q20.15-34 20.83-32.83 21.5-31.65 21.7-29.63 21.9-27.6 21.9-25L21.9-25Q21.9-21.2 21.55-18.15 21.2-15.1 20.9-12.8L20.9-12.8Q20.7-11.3 20.55-10.2 20.4-9.1 20.4-8.4L20.4-8.4Q20.4-4.85 23.45-4.2L23.45-4.2Q24.25-4.05 24.25-3.15L24.25-3.15Q24.25-2.6 23.93-1.75 23.6-0.9 22.75-0.23 21.9 0.45 20.3 0.45L20.3 0.45Q18.15 0.45 17.4-1 16.65-2.45 16.65-5.4L16.65-5.4Q15.25-2.85 13.1-1.1 10.95 0.65 8.15 0.65ZM9.7-4.7L9.7-4.7Q11.1-4.7 12.5-5.6 13.9-6.5 15-8.05L15-8.05Q15.65-9 16.18-10.23 16.7-11.45 17.15-12.7L17.15-12.7Q14.6-15 11.5-15L11.5-15Q8.8-15 7.2-13.38 5.6-11.75 5.6-9.35L5.6-9.35Q5.6-7.3 6.8-6 8-4.7 9.7-4.7ZM35.35 0.65L35.35 0.65Q31.55 0.65 29.42-1.53 27.3-3.7 27.3-7.6L27.3-7.6Q27.3-11.15 28.85-14.05 30.4-16.95 33.02-18.68 35.65-20.4 38.8-20.4L38.8-20.4Q41.8-20.4 43.6-18.93 45.4-17.45 45.4-15L45.4-15Q45.4-13.05 44.2-11.4 43-9.75 41-8.78 39-7.8 36.55-7.8L36.55-7.8Q33.55-7.8 31.65-9.15L31.65-9.15Q31.7-6.85 33.22-5.45 34.75-4.05 37.15-4.05L37.15-4.05Q38.6-4.05 40.12-4.58 41.65-5.1 42.75-6L42.75-6Q43.45-6.6 44.05-6.6L44.05-6.6Q44.55-6.6 44.87-6.28 45.2-5.95 45.2-5.45L45.2-5.45Q45.2-4.35 43.3-2.55L43.3-2.55Q39.95 0.65 35.35 0.65ZM36.1-11.1L36.1-11.1Q37.9-11.1 39.1-11.85 40.3-12.6 40.3-13.75L40.3-13.75Q40.3-14.7 39.5-15.23 38.7-15.75 37.3-15.75L37.3-15.75Q35.45-15.75 34.07-14.78 32.7-13.8 32.1-12.05L32.1-12.05Q32.8-11.6 33.9-11.35 35-11.1 36.1-11.1ZM56.3 0.7L56.3 0.7Q54.95 0.7 53.97-0.13 52.99-0.95 52.8-3.2L52.8-3.2Q52.7-4.9 52.37-6.95 52.05-9 51.55-10.85 51.05-12.7 50.39-13.75L50.39-13.75Q50.05-14.3 49.62-14.58 49.2-14.85 48.34-14.95L48.34-14.95Q47.8-15 47.59-15.3 47.39-15.6 47.39-16.25L47.39-16.25Q47.39-18.3 48.52-19.28 49.64-20.25 51.09-20.25L51.09-20.25Q52.59-20.25 53.59-19.28 54.59-18.3 55.14-16.7 55.7-15.1 55.92-13.18 56.14-11.25 56.14-9.3L56.14-9.3Q56.14-8.5 56.12-7.63 56.09-6.75 56.09-6.15L56.09-6.15Q56.09-5.6 56.32-5.3 56.55-5 57.2-5L57.2-5Q57.99-5 59.05-5.48 60.09-5.95 61.12-6.85 62.14-7.75 62.82-8.97 63.5-10.2 63.5-11.7L63.5-11.7Q63.5-12.55 63.22-13.5 62.95-14.45 62.34-15.1L62.34-15.1Q61.74-15.75 61.47-16.13 61.2-16.5 61.2-17L61.2-17Q61.2-17.9 62.02-18.65 62.84-19.4 63.97-19.85 65.09-20.3 65.94-20.3L65.94-20.3Q67.39-20.3 67.8-19.1 68.19-17.9 68.19-16.45L68.19-16.45Q68.19-13.7 67.19-10.7 66.19-7.7 64.5-5.1 62.8-2.5 60.67-0.9 58.55 0.7 56.3 0.7Z" opacity="1" transform="matrix(1,0,0,1,0,0)" fill="#6a704c" class="slogan-text-1" data-fill-palette-color="secondary" id="text-1"></path></svg></g></svg></g></svg></g></svg></g><g transform="matrix(1,0,0,1,0,18.080435244591676)"><svg viewBox="0 0 244.43135999999996 122.52359819777136" height="122.52359819777136" width="244.43135999999996"><g><svg xmlns="http://www.w3.org/2000/svg" xmlns:xlink="http://www.w3.org/1999/xlink" xml:space="preserve" style="shape-rendering:geometricPrecision;text-rendering:geometricPrecision;image-rendering:optimizeQuality;" viewBox="0 -0.00004110933377126161 14.727 7.382052084718504" x="0" y="0" fill-rule="evenodd" clip-rule="evenodd" id="icon-0" width="244.43135999999996" height="122.52359819777136" class="icon-icon-0" data-fill-palette-color="accent"><g fill="#412e27" data-fill-palette-color="accent"><path class="" d="M1.757 3.091C1.444 3.535 1.46 4.421 1.34 5.041 1.187 5.825 0.63 6.244 0 6.575 0.188 5.805 0.348 5.033 0.412 4.262 0.49 3.31 0.352 3.372 1.179 2.687 2.338 1.727 4.218 0.946 7.027 0.397 9.483-0.009 12.077-0.056 14.727 0.046 13.838 1.855 10.995 2.006 7.526 1.627 5.715 1.647 4.03 1.139 1.757 3.091M10.087 5.872C6.192 7.911 2.285 3.588 0.922 6.56 3.026 4.729 6.002 9.743 10.087 5.872M12.576 3.325C8.086 6.045 3.073 2.534 1.669 5.185 5.081 3.95 9.434 7.937 12.576 3.324M13.41 1.847C9.466 3.607 3.367 0.445 1.845 4.087 4.95 2.277 10.29 5.523 13.41 1.846" fill="#412e27" data-fill-palette-color="accent"></path></g></svg></g></svg></g></svg></g><defs></defs></svg><rect width="395.52" height="92.16293088962085" fill="none" stroke="none" visibility="hidden"></rect></g></svg></g></svg>